<svg width="24" height="7" viewBox="0 0 24 7" fill="none" xmlns="http://www.w3.org/2000/svg">
<path d="M3.11112 0.833344C1.63557 0.833344 0.444458 2.02445 0.444458 3.50001C0.444458 4.97557 1.63557 6.16668 3.11112 6.16668C4.58668 6.16668 5.77779 4.97557 5.77779 3.50001C5.77779 2.02445 4.58668 0.833344 3.11112 0.833344ZM20.8889 0.833344C19.4133 0.833344 18.2222 2.02445 18.2222 3.50001C18.2222 4.97557 19.4133 6.16668 20.8889 6.16668C22.3645 6.16668 23.5556 4.97557 23.5556 3.50001C23.5556 2.02445 22.3645 0.833344 20.8889 0.833344ZM12 0.833344C10.5245 0.833344 9.33335 2.02445 9.33335 3.50001C9.33335 4.97557 10.5245 6.16668 12 6.16668C13.4756 6.16668 14.6667 4.97557 14.6667 3.50001C14.6667 2.02445 13.4756 0.833344 12 0.833344Z" fill="#41E4F3"/>
</svg>
