<svg width="20" height="17" viewBox="0 0 20 17" fill="none" xmlns="http://www.w3.org/2000/svg">
<path d="M17.6557 2.95864C18.5534 2.40756 19.1478 1.65538 19.4389 0.698762C18.5656 1.16207 17.6957 1.47983 16.8268 1.65538C16.0458 0.815422 15.0569 0.388779 13.8715 0.388779C12.7126 0.388779 11.7338 0.795423 10.9349 1.58649C10.1405 2.38311 9.73946 3.35084 9.73946 4.48077C9.73946 4.82409 9.78279 5.13074 9.86945 5.39072C6.45186 5.27406 3.62313 3.85636 1.39437 1.12763C1.01661 1.79537 0.827732 2.47533 0.827732 3.17862C0.827732 4.6241 1.4377 5.76959 2.65541 6.61066C1.961 6.55177 1.34881 6.37622 0.827732 6.08846C0.827732 7.12063 1.13105 7.9828 1.73879 8.74165C2.34876 9.49272 3.13205 9.97158 4.08866 10.176C3.74201 10.2649 3.37648 10.3071 3.00094 10.3071C2.6543 10.3071 2.40875 10.2782 2.26321 10.2149C2.51875 11.056 3.00094 11.7381 3.69757 12.2603C4.39198 12.7848 5.19082 13.0614 6.08855 13.0859C4.60863 14.2469 2.9165 14.8213 1.00217 14.8213C0.533304 14.8213 0.2011 14.8146 0 14.7791C1.88545 16.0035 3.98422 16.6112 6.30632 16.6112C8.68285 16.6112 10.7827 16.009 12.6104 14.8046C14.4381 13.6069 15.7869 12.1292 16.6535 10.3893C17.5246 8.65165 17.9557 6.84286 17.9557 4.95408V4.43411C18.7978 3.80081 19.4789 3.08752 20 2.29978C19.2445 2.62532 18.4634 2.84642 17.6557 2.95864Z" fill="#21B1BF"/>
</svg>
